<svg xmlns="http://www.w3.org/2000/svg" width="760" height="520">
<rect width="100%" height="100%" fill="white"/>
<text x="380.0" y="28" text-anchor="middle" font-size="17" font-family="Arial">P6 clean v2: macro cv_usage vs valid MRR (IQR)</text>
<line x1="90" y1="450" x2="730" y2="450" stroke="black"/>
<line x1="90" y1="50" x2="90" y2="450" stroke="black"/>
<line x1="90.00" y1="450" x2="90.00" y2="455" stroke="black"/>
<text x="90.00" y="472" text-anchor="middle" font-size="11" font-family="Arial">0.08787</text>
<line x1="218.00" y1="450" x2="218.00" y2="455" stroke="black"/>
<text x="218.00" y="472" text-anchor="middle" font-size="11" font-family="Arial">0.2025</text>
<line x1="346.00" y1="450" x2="346.00" y2="455" stroke="black"/>
<text x="346.00" y="472" text-anchor="middle" font-size="11" font-family="Arial">0.3172</text>
<line x1="474.00" y1="450" x2="474.00" y2="455" stroke="black"/>
<text x="474.00" y="472" text-anchor="middle" font-size="11" font-family="Arial">0.4318</text>
<line x1="602.00" y1="450" x2="602.00" y2="455" stroke="black"/>
<text x="602.00" y="472" text-anchor="middle" font-size="11" font-family="Arial">0.5465</text>
<line x1="730.00" y1="450" x2="730.00" y2="455" stroke="black"/>
<text x="730.00" y="472" text-anchor="middle" font-size="11" font-family="Arial">0.6611</text>
<line x1="85" y1="450.00" x2="90" y2="450.00" stroke="black"/>
<text x="81" y="454.00" text-anchor="end" font-size="11" font-family="Arial">0.0792</text>
<line x1="85" y1="370.00" x2="90" y2="370.00" stroke="black"/>
<text x="81" y="374.00" text-anchor="end" font-size="11" font-family="Arial">0.0796</text>
<line x1="85" y1="290.00" x2="90" y2="290.00" stroke="black"/>
<text x="81" y="294.00" text-anchor="end" font-size="11" font-family="Arial">0.0800</text>
<line x1="85" y1="210.00" x2="90" y2="210.00" stroke="black"/>
<text x="81" y="214.00" text-anchor="end" font-size="11" font-family="Arial">0.0805</text>
<line x1="85" y1="130.00" x2="90" y2="130.00" stroke="black"/>
<text x="81" y="134.00" text-anchor="end" font-size="11" font-family="Arial">0.0809</text>
<line x1="85" y1="50.00" x2="90" y2="50.00" stroke="black"/>
<text x="81" y="54.00" text-anchor="end" font-size="11" font-family="Arial">0.0813</text>
<text x="410.0" y="500" text-anchor="middle" font-size="13" font-family="Arial">macro_cv_usage</text>
<text transform="translate(24,250.0) rotate(-90)" text-anchor="middle" font-size="13" font-family="Arial">best_valid_mrr20</text>
<line x1="90.00" y1="322.00" x2="730.00" y2="177.92" stroke="#d62728" stroke-width="2"/>
<circle cx="355.84" cy="430.95" r="4" fill="#ff7f0e" fill-opacity="0.78"/>
<circle cx="540.51" cy="335.71" r="4" fill="#ff7f0e" fill-opacity="0.78"/>
<circle cx="508.04" cy="164.29" r="4" fill="#ff7f0e" fill-opacity="0.78"/>
<circle cx="703.44" cy="221.43" r="4" fill="#ff7f0e" fill-opacity="0.78"/>
<circle cx="451.68" cy="50.00" r="4" fill="#ff7f0e" fill-opacity="0.78"/>
<circle cx="730.00" cy="164.29" r="4" fill="#ff7f0e" fill-opacity="0.78"/>
<circle cx="249.90" cy="69.05" r="4" fill="#1f77b4" fill-opacity="0.78"/>
<circle cx="352.61" cy="88.10" r="4" fill="#1f77b4" fill-opacity="0.78"/>
<circle cx="349.98" cy="69.05" r="4" fill="#1f77b4" fill-opacity="0.78"/>
<circle cx="181.36" cy="164.29" r="4" fill="#1f77b4" fill-opacity="0.78"/>
<circle cx="317.14" cy="164.29" r="4" fill="#1f77b4" fill-opacity="0.78"/>
<circle cx="199.36" cy="126.19" r="4" fill="#1f77b4" fill-opacity="0.78"/>
<circle cx="248.50" cy="240.48" r="4" fill="#1f77b4" fill-opacity="0.78"/>
<circle cx="386.44" cy="278.57" r="4" fill="#1f77b4" fill-opacity="0.78"/>
<circle cx="403.40" cy="297.62" r="4" fill="#1f77b4" fill-opacity="0.78"/>
<circle cx="127.65" cy="450.00" r="4" fill="#1f77b4" fill-opacity="0.78"/>
<circle cx="102.78" cy="411.90" r="4" fill="#1f77b4" fill-opacity="0.78"/>
<circle cx="160.42" cy="335.71" r="4" fill="#1f77b4" fill-opacity="0.78"/>
<circle cx="127.34" cy="392.86" r="4" fill="#1f77b4" fill-opacity="0.78"/>
<circle cx="140.31" cy="411.90" r="4" fill="#1f77b4" fill-opacity="0.78"/>
<circle cx="147.50" cy="278.57" r="4" fill="#1f77b4" fill-opacity="0.78"/>
<circle cx="187.42" cy="335.71" r="4" fill="#1f77b4" fill-opacity="0.78"/>
<circle cx="233.96" cy="430.95" r="4" fill="#1f77b4" fill-opacity="0.78"/>
<circle cx="237.71" cy="430.95" r="4" fill="#1f77b4" fill-opacity="0.78"/>
<circle cx="172.36" cy="278.57" r="4" fill="#1f77b4" fill-opacity="0.78"/>
<circle cx="140.24" cy="354.76" r="4" fill="#1f77b4" fill-opacity="0.78"/>
<circle cx="121.84" cy="354.76" r="4" fill="#1f77b4" fill-opacity="0.78"/>
<circle cx="106.96" cy="354.76" r="4" fill="#1f77b4" fill-opacity="0.78"/>
<circle cx="125.94" cy="335.71" r="4" fill="#1f77b4" fill-opacity="0.78"/>
<circle cx="95.87" cy="411.90" r="4" fill="#1f77b4" fill-opacity="0.78"/>
<circle cx="90.00" cy="411.90" r="4" fill="#1f77b4" fill-opacity="0.78"/>
<circle cx="122.94" cy="411.90" r="4" fill="#1f77b4" fill-opacity="0.78"/>
<circle cx="164.84" cy="430.95" r="4" fill="#1f77b4" fill-opacity="0.78"/>
<circle cx="147.84" cy="335.71" r="4" fill="#1f77b4" fill-opacity="0.78"/>
<circle cx="114.01" cy="373.81" r="4" fill="#1f77b4" fill-opacity="0.78"/>
<circle cx="163.74" cy="297.62" r="4" fill="#1f77b4" fill-opacity="0.78"/>
<circle cx="155.94" cy="354.76" r="4" fill="#1f77b4" fill-opacity="0.78"/>
<circle cx="170.45" cy="297.62" r="4" fill="#1f77b4" fill-opacity="0.78"/>
<circle cx="224.79" cy="450.00" r="4" fill="#1f77b4" fill-opacity="0.78"/>
<circle cx="228.29" cy="430.95" r="4" fill="#1f77b4" fill-opacity="0.78"/>
<circle cx="234.55" cy="316.67" r="4" fill="#1f77b4" fill-opacity="0.78"/>
<circle cx="287.16" cy="297.62" r="4" fill="#1f77b4" fill-opacity="0.78"/>
<circle cx="135.80" cy="297.62" r="4" fill="#1f77b4" fill-opacity="0.78"/>
<circle cx="119.96" cy="316.67" r="4" fill="#1f77b4" fill-opacity="0.78"/>
<circle cx="120.71" cy="316.67" r="4" fill="#1f77b4" fill-opacity="0.78"/>
<circle cx="566.87" cy="145.24" r="4" fill="#ff7f0e" fill-opacity="0.78"/>
<circle cx="409.38" cy="145.24" r="4" fill="#ff7f0e" fill-opacity="0.78"/>
<circle cx="412.38" cy="69.05" r="4" fill="#ff7f0e" fill-opacity="0.78"/>
<circle cx="594.43" cy="259.52" r="4" fill="#ff7f0e" fill-opacity="0.78"/>
<circle cx="633.68" cy="316.67" r="4" fill="#ff7f0e" fill-opacity="0.78"/>
<circle cx="568.03" cy="373.81" r="4" fill="#ff7f0e" fill-opacity="0.78"/>
<circle cx="650.83" cy="335.71" r="4" fill="#ff7f0e" fill-opacity="0.78"/>
<circle cx="515.24" cy="450.00" r="4" fill="#ff7f0e" fill-opacity="0.78"/>
<circle cx="321.74" cy="69.05" r="4" fill="#1f77b4" fill-opacity="0.78"/>
<circle cx="449.66" cy="88.10" r="4" fill="#1f77b4" fill-opacity="0.78"/>
<circle cx="195.51" cy="88.10" r="4" fill="#1f77b4" fill-opacity="0.78"/>
<circle cx="264.86" cy="126.19" r="4" fill="#1f77b4" fill-opacity="0.78"/>
<circle cx="176.09" cy="164.29" r="4" fill="#1f77b4" fill-opacity="0.78"/>
<circle cx="174.15" cy="183.33" r="4" fill="#1f77b4" fill-opacity="0.78"/>
<circle cx="148.42" cy="202.38" r="4" fill="#1f77b4" fill-opacity="0.78"/>
<circle cx="318.67" cy="240.48" r="4" fill="#1f77b4" fill-opacity="0.78"/>
<rect x="560" y="66" width="12" height="12" fill="#1f77b4"/><text x="578" y="76" font-size="11" font-family="Arial">moe_top_k=0(or none)</text>
<rect x="690" y="66" width="12" height="12" fill="#ff7f0e"/><text x="708" y="76" font-size="11" font-family="Arial">moe_top_k>0</text>
</svg>