<svg xmlns="http://www.w3.org/2000/svg" width="760" height="520">
<rect width="100%" height="100%" fill="white"/>
<text x="380.0" y="28" text-anchor="middle" font-size="17" font-family="Arial">P6 clean v2: macro n_eff / expert_count vs valid MRR</text>
<line x1="90" y1="450" x2="730" y2="450" stroke="black"/>
<line x1="90" y1="50" x2="90" y2="450" stroke="black"/>
<line x1="90.00" y1="450" x2="90.00" y2="455" stroke="black"/>
<text x="90.00" y="472" text-anchor="middle" font-size="11" font-family="Arial">0.2384</text>
<line x1="218.00" y1="450" x2="218.00" y2="455" stroke="black"/>
<text x="218.00" y="472" text-anchor="middle" font-size="11" font-family="Arial">0.3869</text>
<line x1="346.00" y1="450" x2="346.00" y2="455" stroke="black"/>
<text x="346.00" y="472" text-anchor="middle" font-size="11" font-family="Arial">0.5354</text>
<line x1="474.00" y1="450" x2="474.00" y2="455" stroke="black"/>
<text x="474.00" y="472" text-anchor="middle" font-size="11" font-family="Arial">0.6838</text>
<line x1="602.00" y1="450" x2="602.00" y2="455" stroke="black"/>
<text x="602.00" y="472" text-anchor="middle" font-size="11" font-family="Arial">0.8323</text>
<line x1="730.00" y1="450" x2="730.00" y2="455" stroke="black"/>
<text x="730.00" y="472" text-anchor="middle" font-size="11" font-family="Arial">0.9807</text>
<line x1="85" y1="450.00" x2="90" y2="450.00" stroke="black"/>
<text x="81" y="454.00" text-anchor="end" font-size="11" font-family="Arial">0.0792</text>
<line x1="85" y1="370.00" x2="90" y2="370.00" stroke="black"/>
<text x="81" y="374.00" text-anchor="end" font-size="11" font-family="Arial">0.0796</text>
<line x1="85" y1="290.00" x2="90" y2="290.00" stroke="black"/>
<text x="81" y="294.00" text-anchor="end" font-size="11" font-family="Arial">0.0800</text>
<line x1="85" y1="210.00" x2="90" y2="210.00" stroke="black"/>
<text x="81" y="214.00" text-anchor="end" font-size="11" font-family="Arial">0.0805</text>
<line x1="85" y1="130.00" x2="90" y2="130.00" stroke="black"/>
<text x="81" y="134.00" text-anchor="end" font-size="11" font-family="Arial">0.0809</text>
<line x1="85" y1="50.00" x2="90" y2="50.00" stroke="black"/>
<text x="81" y="54.00" text-anchor="end" font-size="11" font-family="Arial">0.0813</text>
<text x="410.0" y="500" text-anchor="middle" font-size="13" font-family="Arial">macro_n_eff_expert_norm</text>
<text transform="translate(24,250.0) rotate(-90)" text-anchor="middle" font-size="13" font-family="Arial">best_valid_mrr20</text>
<line x1="90.00" y1="396.14" x2="730.00" y2="161.46" stroke="#d62728" stroke-width="2"/>
<circle cx="663.80" cy="430.95" r="4" fill="#ff7f0e" fill-opacity="0.78"/>
<circle cx="578.92" cy="335.71" r="4" fill="#ff7f0e" fill-opacity="0.78"/>
<circle cx="594.79" cy="164.29" r="4" fill="#ff7f0e" fill-opacity="0.78"/>
<circle cx="497.57" cy="221.43" r="4" fill="#ff7f0e" fill-opacity="0.78"/>
<circle cx="621.60" cy="50.00" r="4" fill="#ff7f0e" fill-opacity="0.78"/>
<circle cx="484.39" cy="164.29" r="4" fill="#ff7f0e" fill-opacity="0.78"/>
<circle cx="702.91" cy="69.05" r="4" fill="#1f77b4" fill-opacity="0.78"/>
<circle cx="665.13" cy="88.10" r="4" fill="#1f77b4" fill-opacity="0.78"/>
<circle cx="666.20" cy="69.05" r="4" fill="#1f77b4" fill-opacity="0.78"/>
<circle cx="722.49" cy="164.29" r="4" fill="#1f77b4" fill-opacity="0.78"/>
<circle cx="679.17" cy="164.29" r="4" fill="#1f77b4" fill-opacity="0.78"/>
<circle cx="717.84" cy="126.19" r="4" fill="#1f77b4" fill-opacity="0.78"/>
<circle cx="703.36" cy="240.48" r="4" fill="#1f77b4" fill-opacity="0.78"/>
<circle cx="650.90" cy="278.57" r="4" fill="#1f77b4" fill-opacity="0.78"/>
<circle cx="643.50" cy="297.62" r="4" fill="#1f77b4" fill-opacity="0.78"/>
<circle cx="96.83" cy="450.00" r="4" fill="#1f77b4" fill-opacity="0.78"/>
<circle cx="97.86" cy="411.90" r="4" fill="#1f77b4" fill-opacity="0.78"/>
<circle cx="305.91" cy="335.71" r="4" fill="#1f77b4" fill-opacity="0.78"/>
<circle cx="96.84" cy="392.86" r="4" fill="#1f77b4" fill-opacity="0.78"/>
<circle cx="96.22" cy="411.90" r="4" fill="#1f77b4" fill-opacity="0.78"/>
<circle cx="307.30" cy="278.57" r="4" fill="#1f77b4" fill-opacity="0.78"/>
<circle cx="302.69" cy="335.71" r="4" fill="#1f77b4" fill-opacity="0.78"/>
<circle cx="90.29" cy="430.95" r="4" fill="#1f77b4" fill-opacity="0.78"/>
<circle cx="90.00" cy="430.95" r="4" fill="#1f77b4" fill-opacity="0.78"/>
<circle cx="304.54" cy="278.57" r="4" fill="#1f77b4" fill-opacity="0.78"/>
<circle cx="308.04" cy="354.76" r="4" fill="#1f77b4" fill-opacity="0.78"/>
<circle cx="309.76" cy="354.76" r="4" fill="#1f77b4" fill-opacity="0.78"/>
<circle cx="310.99" cy="354.76" r="4" fill="#1f77b4" fill-opacity="0.78"/>
<circle cx="309.39" cy="335.71" r="4" fill="#1f77b4" fill-opacity="0.78"/>
<circle cx="98.11" cy="411.90" r="4" fill="#1f77b4" fill-opacity="0.78"/>
<circle cx="98.31" cy="411.90" r="4" fill="#1f77b4" fill-opacity="0.78"/>
<circle cx="97.04" cy="411.90" r="4" fill="#1f77b4" fill-opacity="0.78"/>
<circle cx="94.92" cy="430.95" r="4" fill="#1f77b4" fill-opacity="0.78"/>
<circle cx="307.27" cy="335.71" r="4" fill="#1f77b4" fill-opacity="0.78"/>
<circle cx="97.42" cy="373.81" r="4" fill="#1f77b4" fill-opacity="0.78"/>
<circle cx="305.54" cy="297.62" r="4" fill="#1f77b4" fill-opacity="0.78"/>
<circle cx="306.41" cy="354.76" r="4" fill="#1f77b4" fill-opacity="0.78"/>
<circle cx="304.77" cy="297.62" r="4" fill="#1f77b4" fill-opacity="0.78"/>
<circle cx="90.98" cy="450.00" r="4" fill="#1f77b4" fill-opacity="0.78"/>
<circle cx="90.72" cy="430.95" r="4" fill="#1f77b4" fill-opacity="0.78"/>
<circle cx="296.07" cy="316.67" r="4" fill="#1f77b4" fill-opacity="0.78"/>
<circle cx="287.34" cy="297.62" r="4" fill="#1f77b4" fill-opacity="0.78"/>
<circle cx="308.47" cy="297.62" r="4" fill="#1f77b4" fill-opacity="0.78"/>
<circle cx="309.92" cy="316.67" r="4" fill="#1f77b4" fill-opacity="0.78"/>
<circle cx="309.85" cy="316.67" r="4" fill="#1f77b4" fill-opacity="0.78"/>
<circle cx="565.88" cy="145.24" r="4" fill="#ff7f0e" fill-opacity="0.78"/>
<circle cx="640.85" cy="145.24" r="4" fill="#ff7f0e" fill-opacity="0.78"/>
<circle cx="639.52" cy="69.05" r="4" fill="#ff7f0e" fill-opacity="0.78"/>
<circle cx="552.14" cy="259.52" r="4" fill="#ff7f0e" fill-opacity="0.78"/>
<circle cx="532.47" cy="316.67" r="4" fill="#ff7f0e" fill-opacity="0.78"/>
<circle cx="565.31" cy="373.81" r="4" fill="#ff7f0e" fill-opacity="0.78"/>
<circle cx="523.87" cy="335.71" r="4" fill="#ff7f0e" fill-opacity="0.78"/>
<circle cx="591.30" cy="450.00" r="4" fill="#ff7f0e" fill-opacity="0.78"/>
<circle cx="677.40" cy="69.05" r="4" fill="#1f77b4" fill-opacity="0.78"/>
<circle cx="622.53" cy="88.10" r="4" fill="#1f77b4" fill-opacity="0.78"/>
<circle cx="718.87" cy="88.10" r="4" fill="#1f77b4" fill-opacity="0.78"/>
<circle cx="133.47" cy="50.00" r="4" fill="#1f77b4" fill-opacity="0.78"/>
<circle cx="697.99" cy="126.19" r="4" fill="#1f77b4" fill-opacity="0.78"/>
<circle cx="723.78" cy="164.29" r="4" fill="#1f77b4" fill-opacity="0.78"/>
<circle cx="724.24" cy="183.33" r="4" fill="#1f77b4" fill-opacity="0.78"/>
<circle cx="730.00" cy="202.38" r="4" fill="#1f77b4" fill-opacity="0.78"/>
<circle cx="151.80" cy="240.48" r="4" fill="#1f77b4" fill-opacity="0.78"/>
<circle cx="678.59" cy="240.48" r="4" fill="#1f77b4" fill-opacity="0.78"/>
<rect x="560" y="66" width="12" height="12" fill="#1f77b4"/><text x="578" y="76" font-size="11" font-family="Arial">moe_top_k=0(or none)</text>
<rect x="690" y="66" width="12" height="12" fill="#ff7f0e"/><text x="708" y="76" font-size="11" font-family="Arial">moe_top_k>0</text>
</svg>