<svg xmlns="http://www.w3.org/2000/svg" width="760" height="520">
<rect width="100%" height="100%" fill="white"/>
<text x="380.0" y="28" text-anchor="middle" font-size="17" font-family="Arial">P6 clean v2: macro top1 / uniform-baseline vs valid MRR</text>
<line x1="90" y1="450" x2="730" y2="450" stroke="black"/>
<line x1="90" y1="50" x2="90" y2="450" stroke="black"/>
<line x1="90.00" y1="450" x2="90.00" y2="455" stroke="black"/>
<text x="90.00" y="472" text-anchor="middle" font-size="11" font-family="Arial">1.803</text>
<line x1="218.00" y1="450" x2="218.00" y2="455" stroke="black"/>
<text x="218.00" y="472" text-anchor="middle" font-size="11" font-family="Arial">2.77</text>
<line x1="346.00" y1="450" x2="346.00" y2="455" stroke="black"/>
<text x="346.00" y="472" text-anchor="middle" font-size="11" font-family="Arial">3.737</text>
<line x1="474.00" y1="450" x2="474.00" y2="455" stroke="black"/>
<text x="474.00" y="472" text-anchor="middle" font-size="11" font-family="Arial">4.704</text>
<line x1="602.00" y1="450" x2="602.00" y2="455" stroke="black"/>
<text x="602.00" y="472" text-anchor="middle" font-size="11" font-family="Arial">5.672</text>
<line x1="730.00" y1="450" x2="730.00" y2="455" stroke="black"/>
<text x="730.00" y="472" text-anchor="middle" font-size="11" font-family="Arial">6.639</text>
<line x1="85" y1="450.00" x2="90" y2="450.00" stroke="black"/>
<text x="81" y="454.00" text-anchor="end" font-size="11" font-family="Arial">0.0792</text>
<line x1="85" y1="370.00" x2="90" y2="370.00" stroke="black"/>
<text x="81" y="374.00" text-anchor="end" font-size="11" font-family="Arial">0.0796</text>
<line x1="85" y1="290.00" x2="90" y2="290.00" stroke="black"/>
<text x="81" y="294.00" text-anchor="end" font-size="11" font-family="Arial">0.0800</text>
<line x1="85" y1="210.00" x2="90" y2="210.00" stroke="black"/>
<text x="81" y="214.00" text-anchor="end" font-size="11" font-family="Arial">0.0805</text>
<line x1="85" y1="130.00" x2="90" y2="130.00" stroke="black"/>
<text x="81" y="134.00" text-anchor="end" font-size="11" font-family="Arial">0.0809</text>
<line x1="85" y1="50.00" x2="90" y2="50.00" stroke="black"/>
<text x="81" y="54.00" text-anchor="end" font-size="11" font-family="Arial">0.0813</text>
<text x="410.0" y="500" text-anchor="middle" font-size="13" font-family="Arial">macro_top1_over_uniform</text>
<text transform="translate(24,250.0) rotate(-90)" text-anchor="middle" font-size="13" font-family="Arial">best_valid_mrr20</text>
<line x1="90.00" y1="183.20" x2="730.00" y2="412.56" stroke="#d62728" stroke-width="2"/>
<circle cx="121.69" cy="430.95" r="4" fill="#ff7f0e" fill-opacity="0.78"/>
<circle cx="143.92" cy="335.71" r="4" fill="#ff7f0e" fill-opacity="0.78"/>
<circle cx="251.44" cy="164.29" r="4" fill="#ff7f0e" fill-opacity="0.78"/>
<circle cx="208.48" cy="221.43" r="4" fill="#ff7f0e" fill-opacity="0.78"/>
<circle cx="90.00" cy="50.00" r="4" fill="#ff7f0e" fill-opacity="0.78"/>
<circle cx="335.20" cy="164.29" r="4" fill="#ff7f0e" fill-opacity="0.78"/>
<circle cx="214.34" cy="69.05" r="4" fill="#1f77b4" fill-opacity="0.78"/>
<circle cx="243.43" cy="88.10" r="4" fill="#1f77b4" fill-opacity="0.78"/>
<circle cx="232.65" cy="69.05" r="4" fill="#1f77b4" fill-opacity="0.78"/>
<circle cx="262.89" cy="164.29" r="4" fill="#1f77b4" fill-opacity="0.78"/>
<circle cx="294.26" cy="164.29" r="4" fill="#1f77b4" fill-opacity="0.78"/>
<circle cx="245.05" cy="126.19" r="4" fill="#1f77b4" fill-opacity="0.78"/>
<circle cx="235.84" cy="240.48" r="4" fill="#1f77b4" fill-opacity="0.78"/>
<circle cx="313.10" cy="278.57" r="4" fill="#1f77b4" fill-opacity="0.78"/>
<circle cx="133.04" cy="297.62" r="4" fill="#1f77b4" fill-opacity="0.78"/>
<circle cx="497.10" cy="450.00" r="4" fill="#1f77b4" fill-opacity="0.78"/>
<circle cx="524.76" cy="411.90" r="4" fill="#1f77b4" fill-opacity="0.78"/>
<circle cx="400.05" cy="335.71" r="4" fill="#1f77b4" fill-opacity="0.78"/>
<circle cx="483.23" cy="392.86" r="4" fill="#1f77b4" fill-opacity="0.78"/>
<circle cx="616.16" cy="411.90" r="4" fill="#1f77b4" fill-opacity="0.78"/>
<circle cx="365.38" cy="278.57" r="4" fill="#1f77b4" fill-opacity="0.78"/>
<circle cx="369.51" cy="335.71" r="4" fill="#1f77b4" fill-opacity="0.78"/>
<circle cx="701.62" cy="430.95" r="4" fill="#1f77b4" fill-opacity="0.78"/>
<circle cx="712.18" cy="430.95" r="4" fill="#1f77b4" fill-opacity="0.78"/>
<circle cx="288.53" cy="278.57" r="4" fill="#1f77b4" fill-opacity="0.78"/>
<circle cx="377.70" cy="354.76" r="4" fill="#1f77b4" fill-opacity="0.78"/>
<circle cx="342.92" cy="354.76" r="4" fill="#1f77b4" fill-opacity="0.78"/>
<circle cx="343.10" cy="354.76" r="4" fill="#1f77b4" fill-opacity="0.78"/>
<circle cx="307.82" cy="335.71" r="4" fill="#1f77b4" fill-opacity="0.78"/>
<circle cx="493.34" cy="411.90" r="4" fill="#1f77b4" fill-opacity="0.78"/>
<circle cx="488.66" cy="411.90" r="4" fill="#1f77b4" fill-opacity="0.78"/>
<circle cx="633.68" cy="411.90" r="4" fill="#1f77b4" fill-opacity="0.78"/>
<circle cx="595.15" cy="430.95" r="4" fill="#1f77b4" fill-opacity="0.78"/>
<circle cx="337.55" cy="335.71" r="4" fill="#1f77b4" fill-opacity="0.78"/>
<circle cx="581.41" cy="373.81" r="4" fill="#1f77b4" fill-opacity="0.78"/>
<circle cx="478.05" cy="297.62" r="4" fill="#1f77b4" fill-opacity="0.78"/>
<circle cx="355.20" cy="354.76" r="4" fill="#1f77b4" fill-opacity="0.78"/>
<circle cx="250.39" cy="297.62" r="4" fill="#1f77b4" fill-opacity="0.78"/>
<circle cx="730.00" cy="450.00" r="4" fill="#1f77b4" fill-opacity="0.78"/>
<circle cx="718.60" cy="430.95" r="4" fill="#1f77b4" fill-opacity="0.78"/>
<circle cx="279.80" cy="316.67" r="4" fill="#1f77b4" fill-opacity="0.78"/>
<circle cx="258.43" cy="297.62" r="4" fill="#1f77b4" fill-opacity="0.78"/>
<circle cx="341.60" cy="297.62" r="4" fill="#1f77b4" fill-opacity="0.78"/>
<circle cx="305.61" cy="316.67" r="4" fill="#1f77b4" fill-opacity="0.78"/>
<circle cx="288.27" cy="316.67" r="4" fill="#1f77b4" fill-opacity="0.78"/>
<circle cx="337.87" cy="145.24" r="4" fill="#ff7f0e" fill-opacity="0.78"/>
<circle cx="179.52" cy="145.24" r="4" fill="#ff7f0e" fill-opacity="0.78"/>
<circle cx="272.12" cy="69.05" r="4" fill="#ff7f0e" fill-opacity="0.78"/>
<circle cx="245.26" cy="259.52" r="4" fill="#ff7f0e" fill-opacity="0.78"/>
<circle cx="408.75" cy="316.67" r="4" fill="#ff7f0e" fill-opacity="0.78"/>
<circle cx="150.03" cy="373.81" r="4" fill="#ff7f0e" fill-opacity="0.78"/>
<circle cx="208.42" cy="335.71" r="4" fill="#ff7f0e" fill-opacity="0.78"/>
<circle cx="139.01" cy="450.00" r="4" fill="#ff7f0e" fill-opacity="0.78"/>
<circle cx="225.82" cy="69.05" r="4" fill="#1f77b4" fill-opacity="0.78"/>
<circle cx="228.30" cy="88.10" r="4" fill="#1f77b4" fill-opacity="0.78"/>
<circle cx="459.57" cy="88.10" r="4" fill="#1f77b4" fill-opacity="0.78"/>
<circle cx="673.47" cy="50.00" r="4" fill="#1f77b4" fill-opacity="0.78"/>
<circle cx="166.68" cy="126.19" r="4" fill="#1f77b4" fill-opacity="0.78"/>
<circle cx="246.08" cy="164.29" r="4" fill="#1f77b4" fill-opacity="0.78"/>
<circle cx="202.70" cy="183.33" r="4" fill="#1f77b4" fill-opacity="0.78"/>
<circle cx="273.78" cy="202.38" r="4" fill="#1f77b4" fill-opacity="0.78"/>
<circle cx="338.99" cy="240.48" r="4" fill="#1f77b4" fill-opacity="0.78"/>
<rect x="560" y="66" width="12" height="12" fill="#1f77b4"/><text x="578" y="76" font-size="11" font-family="Arial">moe_top_k=0(or none)</text>
<rect x="690" y="66" width="12" height="12" fill="#ff7f0e"/><text x="708" y="76" font-size="11" font-family="Arial">moe_top_k>0</text>
</svg>