<svg xmlns="http://www.w3.org/2000/svg" width="760" height="520">
<rect width="100%" height="100%" fill="white"/>
<text x="380.0" y="28" text-anchor="middle" font-size="17" font-family="Arial">P5+P6 input: z_loss_lambda vs best valid MRR@20</text>
<line x1="90" y1="450" x2="730" y2="450" stroke="black"/>
<line x1="90" y1="50" x2="90" y2="450" stroke="black"/>
<line x1="90.00" y1="450" x2="90.00" y2="455" stroke="black"/>
<text x="90.00" y="472" text-anchor="middle" font-size="11" font-family="Arial">0.0001</text>
<line x1="218.00" y1="450" x2="218.00" y2="455" stroke="black"/>
<text x="218.00" y="472" text-anchor="middle" font-size="11" font-family="Arial">0.0001</text>
<line x1="346.00" y1="450" x2="346.00" y2="455" stroke="black"/>
<text x="346.00" y="472" text-anchor="middle" font-size="11" font-family="Arial">0.0001</text>
<line x1="474.00" y1="450" x2="474.00" y2="455" stroke="black"/>
<text x="474.00" y="472" text-anchor="middle" font-size="11" font-family="Arial">0.0001</text>
<line x1="602.00" y1="450" x2="602.00" y2="455" stroke="black"/>
<text x="602.00" y="472" text-anchor="middle" font-size="11" font-family="Arial">0.0001</text>
<line x1="730.00" y1="450" x2="730.00" y2="455" stroke="black"/>
<text x="730.00" y="472" text-anchor="middle" font-size="11" font-family="Arial">0.0001</text>
<line x1="85" y1="450.00" x2="90" y2="450.00" stroke="black"/>
<text x="81" y="454.00" text-anchor="end" font-size="11" font-family="Arial">0.0792</text>
<line x1="85" y1="370.00" x2="90" y2="370.00" stroke="black"/>
<text x="81" y="374.00" text-anchor="end" font-size="11" font-family="Arial">0.0796</text>
<line x1="85" y1="290.00" x2="90" y2="290.00" stroke="black"/>
<text x="81" y="294.00" text-anchor="end" font-size="11" font-family="Arial">0.0800</text>
<line x1="85" y1="210.00" x2="90" y2="210.00" stroke="black"/>
<text x="81" y="214.00" text-anchor="end" font-size="11" font-family="Arial">0.0805</text>
<line x1="85" y1="130.00" x2="90" y2="130.00" stroke="black"/>
<text x="81" y="134.00" text-anchor="end" font-size="11" font-family="Arial">0.0809</text>
<line x1="85" y1="50.00" x2="90" y2="50.00" stroke="black"/>
<text x="81" y="54.00" text-anchor="end" font-size="11" font-family="Arial">0.0813</text>
<text x="410.0" y="500" text-anchor="middle" font-size="13" font-family="Arial">z_loss_lambda</text>
<text transform="translate(24,250.0) rotate(-90)" text-anchor="middle" font-size="13" font-family="Arial">best_valid_mrr20</text>
<line x1="90.00" y1="279.91" x2="730.00" y2="279.91" stroke="#d62728" stroke-width="2"/>
<circle cx="90.00" cy="69.05" r="4" fill="#1f77b4" fill-opacity="0.78"/>
<circle cx="90.00" cy="88.10" r="4" fill="#1f77b4" fill-opacity="0.78"/>
<circle cx="90.00" cy="69.05" r="4" fill="#1f77b4" fill-opacity="0.78"/>
<circle cx="90.00" cy="164.29" r="4" fill="#ff7f0e" fill-opacity="0.78"/>
<circle cx="90.00" cy="164.29" r="4" fill="#ff7f0e" fill-opacity="0.78"/>
<circle cx="90.00" cy="126.19" r="4" fill="#ff7f0e" fill-opacity="0.78"/>
<circle cx="90.00" cy="240.48" r="4" fill="#ff7f0e" fill-opacity="0.78"/>
<circle cx="90.00" cy="278.57" r="4" fill="#ff7f0e" fill-opacity="0.78"/>
<circle cx="90.00" cy="297.62" r="4" fill="#ff7f0e" fill-opacity="0.78"/>
<circle cx="90.00" cy="450.00" r="4" fill="#ff7f0e" fill-opacity="0.78"/>
<circle cx="90.00" cy="411.90" r="4" fill="#ff7f0e" fill-opacity="0.78"/>
<circle cx="90.00" cy="335.71" r="4" fill="#ff7f0e" fill-opacity="0.78"/>
<circle cx="90.00" cy="392.86" r="4" fill="#ff7f0e" fill-opacity="0.78"/>
<circle cx="90.00" cy="411.90" r="4" fill="#ff7f0e" fill-opacity="0.78"/>
<circle cx="90.00" cy="278.57" r="4" fill="#ff7f0e" fill-opacity="0.78"/>
<circle cx="90.00" cy="335.71" r="4" fill="#ff7f0e" fill-opacity="0.78"/>
<circle cx="90.00" cy="430.95" r="4" fill="#ff7f0e" fill-opacity="0.78"/>
<circle cx="90.00" cy="430.95" r="4" fill="#ff7f0e" fill-opacity="0.78"/>
<circle cx="90.00" cy="278.57" r="4" fill="#ff7f0e" fill-opacity="0.78"/>
<circle cx="90.00" cy="354.76" r="4" fill="#ff7f0e" fill-opacity="0.78"/>
<circle cx="90.00" cy="354.76" r="4" fill="#ff7f0e" fill-opacity="0.78"/>
<circle cx="90.00" cy="354.76" r="4" fill="#ff7f0e" fill-opacity="0.78"/>
<circle cx="90.00" cy="335.71" r="4" fill="#ff7f0e" fill-opacity="0.78"/>
<circle cx="90.00" cy="411.90" r="4" fill="#ff7f0e" fill-opacity="0.78"/>
<circle cx="90.00" cy="411.90" r="4" fill="#ff7f0e" fill-opacity="0.78"/>
<circle cx="90.00" cy="411.90" r="4" fill="#ff7f0e" fill-opacity="0.78"/>
<circle cx="90.00" cy="430.95" r="4" fill="#ff7f0e" fill-opacity="0.78"/>
<circle cx="90.00" cy="335.71" r="4" fill="#ff7f0e" fill-opacity="0.78"/>
<circle cx="90.00" cy="373.81" r="4" fill="#ff7f0e" fill-opacity="0.78"/>
<circle cx="90.00" cy="297.62" r="4" fill="#ff7f0e" fill-opacity="0.78"/>
<circle cx="90.00" cy="354.76" r="4" fill="#ff7f0e" fill-opacity="0.78"/>
<circle cx="90.00" cy="297.62" r="4" fill="#ff7f0e" fill-opacity="0.78"/>
<circle cx="90.00" cy="450.00" r="4" fill="#ff7f0e" fill-opacity="0.78"/>
<circle cx="90.00" cy="430.95" r="4" fill="#ff7f0e" fill-opacity="0.78"/>
<circle cx="90.00" cy="316.67" r="4" fill="#ff7f0e" fill-opacity="0.78"/>
<circle cx="90.00" cy="297.62" r="4" fill="#ff7f0e" fill-opacity="0.78"/>
<circle cx="90.00" cy="297.62" r="4" fill="#ff7f0e" fill-opacity="0.78"/>
<circle cx="90.00" cy="316.67" r="4" fill="#ff7f0e" fill-opacity="0.78"/>
<circle cx="90.00" cy="316.67" r="4" fill="#ff7f0e" fill-opacity="0.78"/>
<circle cx="90.00" cy="145.24" r="4" fill="#1f77b4" fill-opacity="0.78"/>
<circle cx="90.00" cy="145.24" r="4" fill="#1f77b4" fill-opacity="0.78"/>
<circle cx="90.00" cy="69.05" r="4" fill="#1f77b4" fill-opacity="0.78"/>
<circle cx="90.00" cy="259.52" r="4" fill="#1f77b4" fill-opacity="0.78"/>
<circle cx="90.00" cy="316.67" r="4" fill="#ff7f0e" fill-opacity="0.78"/>
<circle cx="90.00" cy="373.81" r="4" fill="#ff7f0e" fill-opacity="0.78"/>
<circle cx="90.00" cy="335.71" r="4" fill="#ff7f0e" fill-opacity="0.78"/>
<circle cx="90.00" cy="450.00" r="4" fill="#ff7f0e" fill-opacity="0.78"/>
<circle cx="90.00" cy="69.05" r="4" fill="#1f77b4" fill-opacity="0.78"/>
<circle cx="90.00" cy="88.10" r="4" fill="#1f77b4" fill-opacity="0.78"/>
<circle cx="90.00" cy="88.10" r="4" fill="#1f77b4" fill-opacity="0.78"/>
<circle cx="90.00" cy="50.00" r="4" fill="#1f77b4" fill-opacity="0.78"/>
<circle cx="90.00" cy="126.19" r="4" fill="#1f77b4" fill-opacity="0.78"/>
<circle cx="90.00" cy="164.29" r="4" fill="#ff7f0e" fill-opacity="0.78"/>
<circle cx="90.00" cy="183.33" r="4" fill="#ff7f0e" fill-opacity="0.78"/>
<circle cx="90.00" cy="202.38" r="4" fill="#ff7f0e" fill-opacity="0.78"/>
<circle cx="90.00" cy="240.48" r="4" fill="#ff7f0e" fill-opacity="0.78"/>
<circle cx="90.00" cy="240.48" r="4" fill="#ff7f0e" fill-opacity="0.78"/>
<rect x="540" y="66" width="12" height="12" fill="#1f77b4"/><text x="558" y="76" font-size="11" font-family="Arial">global scope</text>
<rect x="650" y="66" width="12" height="12" fill="#ff7f0e"/><text x="668" y="76" font-size="11" font-family="Arial">group scope</text>
</svg>