<svg xmlns="http://www.w3.org/2000/svg" width="760" height="520">
<rect width="100%" height="100%" fill="white"/>
<text x="380.0" y="28" text-anchor="middle" font-size="17" font-family="Arial">P5+P6 output: intra_group_knn_mean_score_mean vs best valid MRR@20</text>
<line x1="90" y1="450" x2="730" y2="450" stroke="black"/>
<line x1="90" y1="50" x2="90" y2="450" stroke="black"/>
<line x1="90.00" y1="450" x2="90.00" y2="455" stroke="black"/>
<text x="90.00" y="472" text-anchor="middle" font-size="11" font-family="Arial">0.9673</text>
<line x1="218.00" y1="450" x2="218.00" y2="455" stroke="black"/>
<text x="218.00" y="472" text-anchor="middle" font-size="11" font-family="Arial">0.9731</text>
<line x1="346.00" y1="450" x2="346.00" y2="455" stroke="black"/>
<text x="346.00" y="472" text-anchor="middle" font-size="11" font-family="Arial">0.9789</text>
<line x1="474.00" y1="450" x2="474.00" y2="455" stroke="black"/>
<text x="474.00" y="472" text-anchor="middle" font-size="11" font-family="Arial">0.9847</text>
<line x1="602.00" y1="450" x2="602.00" y2="455" stroke="black"/>
<text x="602.00" y="472" text-anchor="middle" font-size="11" font-family="Arial">0.9905</text>
<line x1="730.00" y1="450" x2="730.00" y2="455" stroke="black"/>
<text x="730.00" y="472" text-anchor="middle" font-size="11" font-family="Arial">0.9963</text>
<line x1="85" y1="450.00" x2="90" y2="450.00" stroke="black"/>
<text x="81" y="454.00" text-anchor="end" font-size="11" font-family="Arial">0.0792</text>
<line x1="85" y1="370.00" x2="90" y2="370.00" stroke="black"/>
<text x="81" y="374.00" text-anchor="end" font-size="11" font-family="Arial">0.0796</text>
<line x1="85" y1="290.00" x2="90" y2="290.00" stroke="black"/>
<text x="81" y="294.00" text-anchor="end" font-size="11" font-family="Arial">0.0800</text>
<line x1="85" y1="210.00" x2="90" y2="210.00" stroke="black"/>
<text x="81" y="214.00" text-anchor="end" font-size="11" font-family="Arial">0.0805</text>
<line x1="85" y1="130.00" x2="90" y2="130.00" stroke="black"/>
<text x="81" y="134.00" text-anchor="end" font-size="11" font-family="Arial">0.0809</text>
<line x1="85" y1="50.00" x2="90" y2="50.00" stroke="black"/>
<text x="81" y="54.00" text-anchor="end" font-size="11" font-family="Arial">0.0813</text>
<text x="410.0" y="500" text-anchor="middle" font-size="13" font-family="Arial">intra_group_knn_mean_score_mean</text>
<text transform="translate(24,250.0) rotate(-90)" text-anchor="middle" font-size="13" font-family="Arial">best_valid_mrr20</text>
<line x1="90.00" y1="320.07" x2="730.00" y2="236.75" stroke="#d62728" stroke-width="2"/>
<circle cx="303.33" cy="164.29" r="4" fill="#1f77b4" fill-opacity="0.78"/>
<circle cx="90.00" cy="221.43" r="4" fill="#ff7f0e" fill-opacity="0.78"/>
<circle cx="357.62" cy="69.05" r="4" fill="#1f77b4" fill-opacity="0.78"/>
<circle cx="338.30" cy="88.10" r="4" fill="#1f77b4" fill-opacity="0.78"/>
<circle cx="250.81" cy="69.05" r="4" fill="#1f77b4" fill-opacity="0.78"/>
<circle cx="551.87" cy="164.29" r="4" fill="#ff7f0e" fill-opacity="0.78"/>
<circle cx="501.03" cy="164.29" r="4" fill="#ff7f0e" fill-opacity="0.78"/>
<circle cx="529.47" cy="126.19" r="4" fill="#ff7f0e" fill-opacity="0.78"/>
<circle cx="730.00" cy="240.48" r="4" fill="#ff7f0e" fill-opacity="0.78"/>
<circle cx="607.15" cy="278.57" r="4" fill="#ff7f0e" fill-opacity="0.78"/>
<circle cx="607.21" cy="297.62" r="4" fill="#ff7f0e" fill-opacity="0.78"/>
<circle cx="371.06" cy="450.00" r="4" fill="#ff7f0e" fill-opacity="0.78"/>
<circle cx="325.88" cy="411.90" r="4" fill="#ff7f0e" fill-opacity="0.78"/>
<circle cx="462.96" cy="335.71" r="4" fill="#ff7f0e" fill-opacity="0.78"/>
<circle cx="401.39" cy="392.86" r="4" fill="#ff7f0e" fill-opacity="0.78"/>
<circle cx="395.39" cy="411.90" r="4" fill="#ff7f0e" fill-opacity="0.78"/>
<circle cx="479.67" cy="278.57" r="4" fill="#ff7f0e" fill-opacity="0.78"/>
<circle cx="428.11" cy="335.71" r="4" fill="#ff7f0e" fill-opacity="0.78"/>
<circle cx="236.34" cy="430.95" r="4" fill="#ff7f0e" fill-opacity="0.78"/>
<circle cx="288.61" cy="430.95" r="4" fill="#ff7f0e" fill-opacity="0.78"/>
<circle cx="429.77" cy="278.57" r="4" fill="#ff7f0e" fill-opacity="0.78"/>
<circle cx="444.98" cy="354.76" r="4" fill="#ff7f0e" fill-opacity="0.78"/>
<circle cx="399.06" cy="354.76" r="4" fill="#ff7f0e" fill-opacity="0.78"/>
<circle cx="484.27" cy="354.76" r="4" fill="#ff7f0e" fill-opacity="0.78"/>
<circle cx="391.99" cy="335.71" r="4" fill="#ff7f0e" fill-opacity="0.78"/>
<circle cx="264.15" cy="411.90" r="4" fill="#ff7f0e" fill-opacity="0.78"/>
<circle cx="300.38" cy="411.90" r="4" fill="#ff7f0e" fill-opacity="0.78"/>
<circle cx="327.12" cy="411.90" r="4" fill="#ff7f0e" fill-opacity="0.78"/>
<circle cx="228.77" cy="430.95" r="4" fill="#ff7f0e" fill-opacity="0.78"/>
<circle cx="391.75" cy="335.71" r="4" fill="#ff7f0e" fill-opacity="0.78"/>
<circle cx="363.98" cy="373.81" r="4" fill="#ff7f0e" fill-opacity="0.78"/>
<circle cx="493.33" cy="297.62" r="4" fill="#ff7f0e" fill-opacity="0.78"/>
<circle cx="411.47" cy="354.76" r="4" fill="#ff7f0e" fill-opacity="0.78"/>
<circle cx="429.45" cy="297.62" r="4" fill="#ff7f0e" fill-opacity="0.78"/>
<circle cx="299.95" cy="450.00" r="4" fill="#ff7f0e" fill-opacity="0.78"/>
<circle cx="244.56" cy="430.95" r="4" fill="#ff7f0e" fill-opacity="0.78"/>
<circle cx="411.80" cy="316.67" r="4" fill="#ff7f0e" fill-opacity="0.78"/>
<circle cx="408.13" cy="297.62" r="4" fill="#ff7f0e" fill-opacity="0.78"/>
<circle cx="454.27" cy="297.62" r="4" fill="#ff7f0e" fill-opacity="0.78"/>
<circle cx="437.80" cy="316.67" r="4" fill="#ff7f0e" fill-opacity="0.78"/>
<circle cx="388.79" cy="316.67" r="4" fill="#ff7f0e" fill-opacity="0.78"/>
<circle cx="269.93" cy="69.05" r="4" fill="#1f77b4" fill-opacity="0.78"/>
<circle cx="252.31" cy="88.10" r="4" fill="#1f77b4" fill-opacity="0.78"/>
<circle cx="524.01" cy="88.10" r="4" fill="#1f77b4" fill-opacity="0.78"/>
<circle cx="193.08" cy="50.00" r="4" fill="#1f77b4" fill-opacity="0.78"/>
<circle cx="430.86" cy="126.19" r="4" fill="#1f77b4" fill-opacity="0.78"/>
<circle cx="534.22" cy="164.29" r="4" fill="#ff7f0e" fill-opacity="0.78"/>
<circle cx="555.04" cy="183.33" r="4" fill="#ff7f0e" fill-opacity="0.78"/>
<circle cx="641.46" cy="202.38" r="4" fill="#ff7f0e" fill-opacity="0.78"/>
<circle cx="318.42" cy="240.48" r="4" fill="#ff7f0e" fill-opacity="0.78"/>
<circle cx="572.55" cy="240.48" r="4" fill="#ff7f0e" fill-opacity="0.78"/>
<rect x="540" y="66" width="12" height="12" fill="#1f77b4"/><text x="558" y="76" font-size="11" font-family="Arial">global scope</text>
<rect x="650" y="66" width="12" height="12" fill="#ff7f0e"/><text x="668" y="76" font-size="11" font-family="Arial">group scope</text>
</svg>