<svg xmlns="http://www.w3.org/2000/svg" width="760" height="520">
<rect width="100%" height="100%" fill="white"/>
<text x="380.0" y="28" text-anchor="middle" font-size="17" font-family="Arial">P5+P6 output: group_knn_score_mean vs best valid MRR@20</text>
<line x1="90" y1="450" x2="730" y2="450" stroke="black"/>
<line x1="90" y1="50" x2="90" y2="450" stroke="black"/>
<line x1="90.00" y1="450" x2="90.00" y2="455" stroke="black"/>
<text x="90.00" y="472" text-anchor="middle" font-size="11" font-family="Arial">0.9727</text>
<line x1="218.00" y1="450" x2="218.00" y2="455" stroke="black"/>
<text x="218.00" y="472" text-anchor="middle" font-size="11" font-family="Arial">0.9782</text>
<line x1="346.00" y1="450" x2="346.00" y2="455" stroke="black"/>
<text x="346.00" y="472" text-anchor="middle" font-size="11" font-family="Arial">0.9836</text>
<line x1="474.00" y1="450" x2="474.00" y2="455" stroke="black"/>
<text x="474.00" y="472" text-anchor="middle" font-size="11" font-family="Arial">0.9891</text>
<line x1="602.00" y1="450" x2="602.00" y2="455" stroke="black"/>
<text x="602.00" y="472" text-anchor="middle" font-size="11" font-family="Arial">0.9945</text>
<line x1="730.00" y1="450" x2="730.00" y2="455" stroke="black"/>
<text x="730.00" y="472" text-anchor="middle" font-size="11" font-family="Arial">1</text>
<line x1="85" y1="450.00" x2="90" y2="450.00" stroke="black"/>
<text x="81" y="454.00" text-anchor="end" font-size="11" font-family="Arial">0.0792</text>
<line x1="85" y1="370.00" x2="90" y2="370.00" stroke="black"/>
<text x="81" y="374.00" text-anchor="end" font-size="11" font-family="Arial">0.0796</text>
<line x1="85" y1="290.00" x2="90" y2="290.00" stroke="black"/>
<text x="81" y="294.00" text-anchor="end" font-size="11" font-family="Arial">0.0800</text>
<line x1="85" y1="210.00" x2="90" y2="210.00" stroke="black"/>
<text x="81" y="214.00" text-anchor="end" font-size="11" font-family="Arial">0.0805</text>
<line x1="85" y1="130.00" x2="90" y2="130.00" stroke="black"/>
<text x="81" y="134.00" text-anchor="end" font-size="11" font-family="Arial">0.0809</text>
<line x1="85" y1="50.00" x2="90" y2="50.00" stroke="black"/>
<text x="81" y="54.00" text-anchor="end" font-size="11" font-family="Arial">0.0813</text>
<text x="410.0" y="500" text-anchor="middle" font-size="13" font-family="Arial">group_knn_score_mean</text>
<text transform="translate(24,250.0) rotate(-90)" text-anchor="middle" font-size="13" font-family="Arial">best_valid_mrr20</text>
<line x1="90.00" y1="112.80" x2="730.00" y2="364.20" stroke="#d62728" stroke-width="2"/>
<circle cx="730.00" cy="430.95" r="4" fill="#1f77b4" fill-opacity="0.78"/>
<circle cx="186.87" cy="335.71" r="4" fill="#ff7f0e" fill-opacity="0.78"/>
<circle cx="589.02" cy="164.29" r="4" fill="#1f77b4" fill-opacity="0.78"/>
<circle cx="480.00" cy="221.43" r="4" fill="#ff7f0e" fill-opacity="0.78"/>
<circle cx="141.80" cy="50.00" r="4" fill="#1f77b4" fill-opacity="0.78"/>
<circle cx="271.78" cy="164.29" r="4" fill="#ff7f0e" fill-opacity="0.78"/>
<circle cx="379.01" cy="69.05" r="4" fill="#1f77b4" fill-opacity="0.78"/>
<circle cx="384.49" cy="88.10" r="4" fill="#1f77b4" fill-opacity="0.78"/>
<circle cx="285.53" cy="69.05" r="4" fill="#1f77b4" fill-opacity="0.78"/>
<circle cx="517.30" cy="164.29" r="4" fill="#ff7f0e" fill-opacity="0.78"/>
<circle cx="482.10" cy="164.29" r="4" fill="#ff7f0e" fill-opacity="0.78"/>
<circle cx="500.83" cy="126.19" r="4" fill="#ff7f0e" fill-opacity="0.78"/>
<circle cx="639.71" cy="240.48" r="4" fill="#ff7f0e" fill-opacity="0.78"/>
<circle cx="512.57" cy="278.57" r="4" fill="#ff7f0e" fill-opacity="0.78"/>
<circle cx="499.90" cy="297.62" r="4" fill="#ff7f0e" fill-opacity="0.78"/>
<circle cx="730.00" cy="450.00" r="4" fill="#ff7f0e" fill-opacity="0.78"/>
<circle cx="730.00" cy="411.90" r="4" fill="#ff7f0e" fill-opacity="0.78"/>
<circle cx="561.64" cy="335.71" r="4" fill="#ff7f0e" fill-opacity="0.78"/>
<circle cx="730.00" cy="392.86" r="4" fill="#ff7f0e" fill-opacity="0.78"/>
<circle cx="730.00" cy="411.90" r="4" fill="#ff7f0e" fill-opacity="0.78"/>
<circle cx="602.38" cy="278.57" r="4" fill="#ff7f0e" fill-opacity="0.78"/>
<circle cx="604.63" cy="335.71" r="4" fill="#ff7f0e" fill-opacity="0.78"/>
<circle cx="730.00" cy="430.95" r="4" fill="#ff7f0e" fill-opacity="0.78"/>
<circle cx="730.00" cy="430.95" r="4" fill="#ff7f0e" fill-opacity="0.78"/>
<circle cx="592.54" cy="278.57" r="4" fill="#ff7f0e" fill-opacity="0.78"/>
<circle cx="562.03" cy="354.76" r="4" fill="#ff7f0e" fill-opacity="0.78"/>
<circle cx="557.12" cy="354.76" r="4" fill="#ff7f0e" fill-opacity="0.78"/>
<circle cx="596.57" cy="354.76" r="4" fill="#ff7f0e" fill-opacity="0.78"/>
<circle cx="580.02" cy="335.71" r="4" fill="#ff7f0e" fill-opacity="0.78"/>
<circle cx="730.00" cy="411.90" r="4" fill="#ff7f0e" fill-opacity="0.78"/>
<circle cx="730.00" cy="411.90" r="4" fill="#ff7f0e" fill-opacity="0.78"/>
<circle cx="730.00" cy="411.90" r="4" fill="#ff7f0e" fill-opacity="0.78"/>
<circle cx="730.00" cy="430.95" r="4" fill="#ff7f0e" fill-opacity="0.78"/>
<circle cx="538.17" cy="335.71" r="4" fill="#ff7f0e" fill-opacity="0.78"/>
<circle cx="730.00" cy="373.81" r="4" fill="#ff7f0e" fill-opacity="0.78"/>
<circle cx="598.05" cy="297.62" r="4" fill="#ff7f0e" fill-opacity="0.78"/>
<circle cx="585.81" cy="354.76" r="4" fill="#ff7f0e" fill-opacity="0.78"/>
<circle cx="598.12" cy="297.62" r="4" fill="#ff7f0e" fill-opacity="0.78"/>
<circle cx="730.00" cy="450.00" r="4" fill="#ff7f0e" fill-opacity="0.78"/>
<circle cx="730.00" cy="430.95" r="4" fill="#ff7f0e" fill-opacity="0.78"/>
<circle cx="587.00" cy="316.67" r="4" fill="#ff7f0e" fill-opacity="0.78"/>
<circle cx="581.70" cy="297.62" r="4" fill="#ff7f0e" fill-opacity="0.78"/>
<circle cx="551.23" cy="297.62" r="4" fill="#ff7f0e" fill-opacity="0.78"/>
<circle cx="590.80" cy="316.67" r="4" fill="#ff7f0e" fill-opacity="0.78"/>
<circle cx="589.16" cy="316.67" r="4" fill="#ff7f0e" fill-opacity="0.78"/>
<circle cx="90.00" cy="145.24" r="4" fill="#1f77b4" fill-opacity="0.78"/>
<circle cx="181.22" cy="145.24" r="4" fill="#1f77b4" fill-opacity="0.78"/>
<circle cx="242.16" cy="259.52" r="4" fill="#1f77b4" fill-opacity="0.78"/>
<circle cx="125.06" cy="316.67" r="4" fill="#ff7f0e" fill-opacity="0.78"/>
<circle cx="132.05" cy="373.81" r="4" fill="#ff7f0e" fill-opacity="0.78"/>
<circle cx="208.97" cy="450.00" r="4" fill="#ff7f0e" fill-opacity="0.78"/>
<circle cx="323.82" cy="69.05" r="4" fill="#1f77b4" fill-opacity="0.78"/>
<circle cx="246.02" cy="88.10" r="4" fill="#1f77b4" fill-opacity="0.78"/>
<circle cx="521.75" cy="88.10" r="4" fill="#1f77b4" fill-opacity="0.78"/>
<circle cx="209.46" cy="50.00" r="4" fill="#1f77b4" fill-opacity="0.78"/>
<circle cx="397.91" cy="126.19" r="4" fill="#1f77b4" fill-opacity="0.78"/>
<circle cx="503.94" cy="164.29" r="4" fill="#ff7f0e" fill-opacity="0.78"/>
<circle cx="523.09" cy="183.33" r="4" fill="#ff7f0e" fill-opacity="0.78"/>
<circle cx="556.47" cy="202.38" r="4" fill="#ff7f0e" fill-opacity="0.78"/>
<circle cx="334.40" cy="240.48" r="4" fill="#ff7f0e" fill-opacity="0.78"/>
<circle cx="474.87" cy="240.48" r="4" fill="#ff7f0e" fill-opacity="0.78"/>
<rect x="540" y="66" width="12" height="12" fill="#1f77b4"/><text x="558" y="76" font-size="11" font-family="Arial">global scope</text>
<rect x="650" y="66" width="12" height="12" fill="#ff7f0e"/><text x="668" y="76" font-size="11" font-family="Arial">group scope</text>
</svg>